<svg id="_1_27" data-name="1/27" xmlns="http://www.w3.org/2000/svg" viewBox="0 0 453.4 109.8"><path d="M84.8,109.35,79.25,89.07l-5.53,20.28H70.33L63.17,84.21h3.46l5.58,21,5.77-21h2.59l5.77,21,5.54-21h3.47l-7.16,25.14Z"/><path d="M110,96.8c0-7.42,5-13,12.48-13s12.47,5.58,12.47,13-5.05,13-12.47,13S110,104.22,110,96.8Zm21.71,0c0-5.88-3.62-10.21-9.23-10.21s-9.24,4.33-9.24,10.21S116.77,107,122.43,107,131.66,102.64,131.66,96.8Z"/><path d="M171,109.35l-6.41-10h-5v10h-3.12V84.21h10.09c4.6,0,7.88,2.94,7.88,7.58a7,7,0,0,1-6.52,7.31l6.78,10.25Zm.19-17.56a4.68,4.68,0,0,0-5-4.79h-6.6v9.61h6.6A4.7,4.7,0,0,0,171.21,91.79Z"/><path d="M214.42,109.35,204.88,98l-2.52,2.87v8.44h-3.13V84.21h3.13v13l11.11-13h3.92l-10.47,12,11.38,13.19Z"/><path d="M242.47,105.8l1.85-2.37a10.61,10.61,0,0,0,7.91,3.58c4.49,0,5.92-2.41,5.92-4.33,0-6.48-14.88-2.9-14.88-11.87,0-4.15,3.69-7,8.62-7a11.85,11.85,0,0,1,8.94,3.5l-1.89,2.3a9.62,9.62,0,0,0-7.27-3c-3,0-5.16,1.63-5.16,4,0,5.65,14.88,2.41,14.88,11.79,0,3.66-2.49,7.39-9.27,7.39A12.46,12.46,0,0,1,242.47,105.8Z"/><path d="M302.45,109.35V97.82h-14.7v11.53h-3.12V84.21h3.12V95h14.7V84.21h3.13v25.14Z"/><path d="M325.8,96.8c0-7.42,5-13,12.47-13s12.47,5.58,12.47,13-5.05,13-12.47,13S325.8,104.22,325.8,96.8Zm21.7,0c0-5.88-3.61-10.21-9.23-10.21S329,90.92,329,96.8,332.62,107,338.27,107,347.5,102.64,347.5,96.8Z"/><path d="M372.45,109.35V84.21h10.1c5.05,0,7.88,3.47,7.88,7.58s-2.91,7.57-7.88,7.57h-7v10Zm14.74-17.56a4.68,4.68,0,0,0-5-4.79h-6.59v9.57h6.59A4.68,4.68,0,0,0,387.19,91.79Z"/><path d="M2.18,16.31H0L.33.9H62.56l.33,15.41h-2q-1.08-6.33-3-9.15a7.91,7.91,0,0,0-4.07-3.45,30,30,0,0,0-7.42-.64H36.08V48.33a83.28,83.28,0,0,0,.36,9.88,5,5,0,0,0,1.91,3.5c1,.76,3,1.14,5.86,1.14h3.13V65h-32V62.85h3.31q4.11,0,5.7-1a4.87,4.87,0,0,0,2-3.24,68.56,68.56,0,0,0,.45-10.24V3.07H17.35A37.74,37.74,0,0,0,9,3.66q-2.13.6-4,3.58C3.79,9.22,2.84,12.25,2.18,16.31Z"/><path d="M66.05,3.07V.9H95.37V3.07H94q-4.72,0-6.19.78a4.11,4.11,0,0,0-2,2.91q-.5,2.13-.5,10.12V48.33a83.43,83.43,0,0,0,.36,9.91,5,5,0,0,0,1.89,3.47q1.53,1.14,5.88,1.14h1.9V65H66.05V62.85h1.89q4.11,0,5.7-1a4.82,4.82,0,0,0,2-3.24,73.4,73.4,0,0,0,.42-10.24V16.88A69.57,69.57,0,0,0,75.65,7a4.29,4.29,0,0,0-1.89-3.08c-1-.56-3.09-.85-6.34-.85Z"/><path d="M143,54,166.32.9H186V3.07h-2.37q-4.73,0-6.19.78a4.11,4.11,0,0,0-2,2.91q-.5,2.13-.5,10.12V48.33a79.76,79.76,0,0,0,.38,9.91,5.11,5.11,0,0,0,1.91,3.47q1.55,1.14,5.89,1.14H186V65H155.35V62.85h2.27q4.06,0,5.65-1a4.87,4.87,0,0,0,2-3.24,68.56,68.56,0,0,0,.45-10.24V7.52L140.36,65h-2.23L112.55,7.52V45.07A76.34,76.34,0,0,0,113,55.56a8.23,8.23,0,0,0,2.93,4.9,11.53,11.53,0,0,0,6.91,2.39V65H99.92V62.85a11.74,11.74,0,0,0,6.7-2.25,8.15,8.15,0,0,0,3.14-4.94,67.79,67.79,0,0,0,.57-10.88V16.88A65,65,0,0,0,109.88,7,4.36,4.36,0,0,0,108,3.92c-1-.56-3.07-.85-6.32-.85H99.92V.9h19.53Z"/><path d="M232,58.52a9.35,9.35,0,0,1-5.22,3.54,45.7,45.7,0,0,1-9.74.74h-8.89V48.31h0V32.25h7a21.92,21.92,0,0,1,5.84.54,4.39,4.39,0,0,1,2.63,2.37q.88,1.81.89,7.16h2.23V20.38h-2.23a21.94,21.94,0,0,1-.59,6.36,4.2,4.2,0,0,1-2.46,2.44,18.56,18.56,0,0,1-6.55.8h-6.8V3.07H217a45.7,45.7,0,0,1,9.74.74A9.4,9.4,0,0,1,232,7.35q2.21,2.82,3.71,9.53h2.23L236.38.9H190.56V3.07q4.63,0,6.08.93a4.51,4.51,0,0,1,1.84,3.24,71,71,0,0,1,.4,9.64V49a71.2,71.2,0,0,1-.4,9.65,4.51,4.51,0,0,1-1.84,3.23q-1.44.93-6.08.93V65h45.82l1.52-16h-2.23Q234.17,55.71,232,58.52Z"/><path d="M373.47,41.38H349.12l-1.66,4.06q-3.69,8.85-3.69,11.54a5.16,5.16,0,0,0,2,4.38,8.08,8.08,0,0,0,5,1.49V65H331.71V62.85a10.34,10.34,0,0,0,6.34-3q2.08-2.34,5-9.86.24-.7,2.27-5.48L364,0h1.84l21.42,50.93,2.93,6.71a8.89,8.89,0,0,0,2.67,3.57,9.75,9.75,0,0,0,5,1.64V65h-25.2V62.85c3.09,0,5.17-.23,6.26-.69a2.66,2.66,0,0,0,1.63-2.72c0-.69-.72-2.76-2.17-6.19Zm-.8-2.13L361.32,11.92,350,39.25Z"/><path d="M421.91,34.85V48.33a84.23,84.23,0,0,0,.35,9.91,5,5,0,0,0,1.92,3.47q1.56,1.14,5.86,1.14h2.13V65H402.8V62.85h1.7q4.13,0,5.7-1a4.75,4.75,0,0,0,2-3.24,71.19,71.19,0,0,0,.43-10.24V16.88A67.46,67.46,0,0,0,412.21,7a4.23,4.23,0,0,0-1.89-3.08c-1-.56-3.09-.85-6.34-.85H402.8V.9l8-.29q9.65-.33,15-.33,9.93,0,15.3,1.56A17.93,17.93,0,0,1,450,7.38a14.77,14.77,0,0,1,3.43,10,18.09,18.09,0,0,1-2.34,9.27,15,15,0,0,1-6.72,6.1Q440,34.85,429,34.85Zm0-2.36h4.58a29.57,29.57,0,0,0,8.94-1.11,10.7,10.7,0,0,0,5.67-4.66A15.87,15.87,0,0,0,443.37,18q0-7.95-3.9-11.66T426.82,2.6a46.55,46.55,0,0,0-4.91.19Z"/><path d="M325,52.68a25.87,25.87,0,0,1-4.32,5,25.44,25.44,0,0,1-7,4.34,21.7,21.7,0,0,1-8.46,1.65,23,23,0,0,1-10.42-2.34,24.15,24.15,0,0,1-8-6.38,29.08,29.08,0,0,1-5.08-9.51A37.49,37.49,0,0,1,280,33.69a39.44,39.44,0,0,1,1.7-11.5,33.61,33.61,0,0,1,4.86-10A24.75,24.75,0,0,1,294.37,5a21.13,21.13,0,0,1,10.68-2.69,21.72,21.72,0,0,1,8.2,1.57,24.4,24.4,0,0,1,6.94,4.25A27.25,27.25,0,0,1,325,13.82V7h0a7.07,7.07,0,0,1-1.56-1,24.44,24.44,0,0,0-4-2.08A41.09,41.09,0,0,0,313,1.83a39.13,39.13,0,0,0-9.12-.95A40.51,40.51,0,0,0,293.5,2.09a35.32,35.32,0,0,0-8.24,3.26,28.79,28.79,0,0,0-6.34,4.73,30.84,30.84,0,0,0-4.51,5.64,32.36,32.36,0,0,0-2.56,5,36.31,36.31,0,0,0-1.57,4.73,32.34,32.34,0,0,0-1,7.81,33.3,33.3,0,0,0,2.43,12.89,28.27,28.27,0,0,0,7,10.07,31.5,31.5,0,0,0,11.07,6.51A43.39,43.39,0,0,0,304.35,65a40.18,40.18,0,0,0,8.6-.82,38.26,38.26,0,0,0,6.33-1.91,25.13,25.13,0,0,0,4-2,7.5,7.5,0,0,1,1.57-.91.58.58,0,0,1,.19.06Z"/><path d="M324,11.38a36.42,36.42,0,0,1,1.67,5H327L326.65.82h-1.34L322.9,6.57Z"/><path d="M324,60s1.14,3.17,1.67,5H327l-.36-15.61h-1.34l-2.41,6.1Z"/></svg>